<svg id="LogoFinal_copy" data-name="LogoFinal copy" xmlns="http://www.w3.org/2000/svg" viewBox="0 0 299.83 111.71"><defs><style>.cls-1{font-size:16.22px;font-family:Lato-Black, Lato;font-weight:800;}.cls-1,.cls-5{fill:#cf1f3e;}.cls-2{letter-spacing:-0.02em;}.cls-3{letter-spacing:-0.01em;}.cls-4{letter-spacing:0em;}</style></defs><title>Robinsons-logo</title><text class="cls-1" transform="translate(223.63 106.86)"><tspan class="cls-2">I</tspan><tspan class="cls-3" x="4.79" y="0">c</tspan><tspan x="12.54" y="0">e C</tspan><tspan class="cls-3" x="35.66" y="0">r</tspan><tspan class="cls-4" x="41.7" y="0">eam</tspan></text><circle class="cls-5" cx="131.99" cy="41.44" r="4.79"/><path class="cls-5" d="M273.48,55.41a2.07,2.07,0,0,1-.26,2.28c-.28.27.11.66.36.41,0,0,3.74-2.28,3.93-5.07a1.7,1.7,0,0,0,0-.22,2.86,2.86,0,1,0-4,2.6Z"/><path class="cls-5" d="M261.88,76.65s-3.66,6.69-7.78,6.69a1,1,0,0,1-1-1.08c0-2.68,10-16.72,10-21.28,0-3.83-2.45-6.45-7-6.45-3.16,0-7.57,3.37-12.15,8,1.18-2.46,2.07-4.32,2.43-5.11.83-1.79-6.7-5-7.61-2.93,0,0-6.51,10.09-13,13.18a21.73,21.73,0,0,0,1-6.09c0-4-3.11-7.07-7.5-7.07-9.15,0-16.48,6.56-20.17,14.68a113.07,113.07,0,0,1-9.41,11.66,10.42,10.42,0,0,0,.13-1.69c0-3.65-1-12.75-1-16.94,0-3.27,2.24-7.09,3.45-9.44,1.07-2.09-5-7.34-6.12-5-.62,1.29-5.37,10.06-5.37,11.93,0,.15,0,.32,0,.52-3,4.46-15.85,23.12-20.66,23.12a1,1,0,0,1-1-1.08c0-2.68,10-16.72,10-21.28,0-3.83-2.45-6.45-7-6.45-3.09,0-7.45,3.33-12,7.94,1.15-2.41,2-4.24,2.38-5,.83-1.79-6.7-5-7.61-2.93,0,0-17.89,28.82-23.38,28.82a1,1,0,0,1-1-1.08c0-3.09,10.9-23.85,11.33-24.81.78-1.75-6.59-5.07-7.74-2.92,0,0-8.69,10.94-15.86,13.52a34.4,34.4,0,0,0,.59-6.26c0-3.43-2.14-7.27-6.52-7.27-3.11,0-6.08,2.5-8.3,5,6.31-13.35,12.63-26.73,14-29.68,1.13-2.54-5.62-7.56-6.72-5.17-.48,1-7.39,15.63-14.53,30.71-2,2.54-7.86,9.82-13.42,12.32a22.09,22.09,0,0,0,1-6.13c0-4-3.12-7.07-7.51-7.07C53.45,54.54,44,68.45,44,80.8c0,5.83,2.86,9.11,8.43,9.11,7.35,0,14.39-8,18.41-16.14,3.26-.89,7.32-3.77,9.86-5.77-5.48,11.57-10,21-10.2,21.55s8.93.63,9.16.13l2.56-5.43c.3,2.23,1.7,5.64,7.52,5.64,6.78,0,13.5-7,16.82-16.16,3.66-1.07,8.34-4.62,10.77-6.61-3.39,6.75-6.78,14.16-6.78,16.95,0,3.88,2.42,5.83,5.9,5.83,7.5,0,14.35-8,18.73-14.62-3.33,7.12-6.31,13.47-6.66,14.26-.2.44,8.26.44,8.48,0l2.34-4.84c4.6-8,13.86-22.93,18.8-22.93a1.29,1.29,0,0,1,1.41,1.42c0,2.64-10.37,16.1-10.37,21.09a5.57,5.57,0,0,0,5.93,5.62c5.09,0,10.16-3.5,14.59-8a9.4,9.4,0,0,0,9.27,8h.16l0,0c8.33,0,14.29-6.3,17.4-10.62,0,.51,0,1,0,1.51,0,5.83,2.86,9.11,8.43,9.11,7.35,0,14.4-8,18.42-16.15,3.2-.92,7-3.86,9.26-5.85-4.43,9.48-9.64,20.58-10.11,21.63-.2.44,8.26.44,8.48,0l2-4.12c4.45-7.78,14.14-23.65,19.25-23.65a1.28,1.28,0,0,1,1.41,1.42c0,2.64-10.36,16.1-10.36,21.09a5.57,5.57,0,0,0,5.93,5.62c9.57,0,14.57-11.47,14.57-11.47C263.91,77.9,262.13,76,261.88,76.65ZM68.42,66.77c-2.41.62-3.84,2.25-3.84,3.87a3,3,0,0,0,1.15,2.54c-2.86,5.32-7.06,10.16-10.87,10.16-1.69,0-2.42-1.13-2.45-2.91C52.29,73.8,60.68,60,66.85,60a2.35,2.35,0,0,1,2.3,2.62A15.32,15.32,0,0,1,68.42,66.77ZM88.25,84.36c-2.55,0-3.07-3.6-3.1-6.34l4.94-10.46c1.75-2.28,4.34-5,6.8-5,1.65,0,2.41,1,2.41,2.78C99.3,72.38,94.41,84.36,88.25,84.36Zm90-1c-3.34,0-4.45-3.71-4.8-5.68a96,96,0,0,0,7.65-11c.3,4.69.68,10.09.68,11.67C181.74,81.37,180.59,83.34,178.21,83.34Zm42.66-16.57c-2.41.62-3.85,2.25-3.85,3.87a3,3,0,0,0,1.15,2.54c-2.85,5.32-7.06,10.16-10.87,10.16-1.69,0-2.42-1.13-2.45-2.91C204.73,73.8,213.12,60,219.29,60a2.35,2.35,0,0,1,2.3,2.62A15.65,15.65,0,0,1,220.87,66.77Z"/><path class="cls-5" d="M293.59,47.77c-.62,1.29-5.37,10.06-5.37,11.93,0,.2,0,.44,0,.7-3.22,4.78-15.8,22.94-20.53,22.94-.9,0-6.37,6.56-5,6.56,5,0,10.07-3.44,14.48-7.92a9.39,9.39,0,0,0,9.25,7.9,10.53,10.53,0,0,0,10.79-10.69c0-3.65-1-12.75-1-16.94,0-3.27,2.24-7.09,3.45-9.44C300.78,50.72,294.69,45.47,293.59,47.77Zm-7.88,35.57c-3.27,0-4.4-3.55-4.78-5.54a96.32,96.32,0,0,0,7.64-11c.29,4.64.66,9.91.66,11.47C289.23,81.37,288.09,83.34,285.71,83.34Z"/><path class="cls-5" d="M34.91,58.27C54.84,55.59,69.8,37.73,69.8,21c0-12.81-9.87-21-23.57-21-16.92,0-35.38,11.17-40,24.18-1.12,3.13.21,5.28,3,6.36,5-12.1,17.2-23.35,35.68-23.35,7.75,0,13.8,4.38,13.8,13.7,0,13.13-10.57,31.36-27.37,31.36-1.39,0-2.68-.06-3.89-.17,7.36-15.5,14.15-29.79,15-31.6,1.42-3.2-7.55-9.77-8.91-6.79-.54,1.2-8.5,18-16.43,34.69A17,17,0,0,1,12.43,42,4.55,4.55,0,0,0,9.76,48.5a16.42,16.42,0,0,0,4.79,5.3L1,82.36C-3.11,91,6.79,95.53,7.75,93.51c1.26-2.61,9-18.85,16.84-35.38h0a1.57,1.57,0,0,0-.19.71c0,6.66,4.42,41.19,8.61,45.38,3.44,3.25,13.92,6.64,12.28,3.45C41.06,99.4,33.83,69.76,34.91,58.27Z"/></svg>