<svg id="LogoFinal_copy" data-name="LogoFinal copy" xmlns="http://www.w3.org/2000/svg" viewBox="0 0 245.66 92.32"><defs><style>.cls-1{font-size:15.98px;font-family:HelveticaNeueLT-Heavy, Helvetica Neue LT;font-weight:800;}.cls-1,.cls-4{fill:#cf1f3e;}.cls-2{letter-spacing:-0.02em;}.cls-3{letter-spacing:0em;}</style></defs><text class="cls-1" transform="translate(158.65 88.59)">Ice C<tspan class="cls-2" x="41.43" y="0">r</tspan><tspan class="cls-3" x="47.95" y="0">eam </tspan></text><circle class="cls-4" cx="106.31" cy="33.38" r="3.86"/><path class="cls-4" d="M220.29,44.63a1.66,1.66,0,0,1-.22,1.84c-.22.22.1.53.3.33,0,0,3-1.83,3.16-4.09a1,1,0,0,0,0-.17,2.3,2.3,0,1,0-3.25,2.09Z"/><path class="cls-4" d="M211,61.74s-3,5.39-6.27,5.39a.84.84,0,0,1-.85-.87c0-2.16,8-13.47,8-17.14,0-3.09-2-5.2-5.6-5.2-2.55,0-6.1,2.72-9.79,6.47.95-2,1.67-3.48,2-4.11.66-1.45-5.4-4-6.13-2.36,0,0-5.24,8.12-10.5,10.61a17.82,17.82,0,0,0,.83-4.91,5.72,5.72,0,0,0-6.05-5.69c-7.37,0-13.27,5.29-16.25,11.83a90.32,90.32,0,0,1-7.57,9.39,10,10,0,0,0,.1-1.36c0-2.95-.8-10.27-.8-13.65,0-2.64,1.8-5.71,2.77-7.6.87-1.68-4-5.92-4.92-4.06-.5,1-4.33,8.11-4.33,9.61,0,.12,0,.26,0,.41-2.42,3.6-12.77,18.63-16.64,18.63a.84.84,0,0,1-.85-.87c0-2.16,8-13.47,8-17.14,0-3.09-2-5.2-5.6-5.2-2.49,0-6,2.69-9.66,6.4.93-1.94,1.63-3.42,1.92-4,.66-1.45-5.4-4-6.13-2.36,0,0-14.42,23.21-18.84,23.21a.83.83,0,0,1-.84-.87c0-2.49,8.78-19.21,9.12-20,.63-1.41-5.3-4.09-6.23-2.35,0,0-7,8.8-12.78,10.89a27.52,27.52,0,0,0,.48-5c0-2.76-1.72-5.85-5.25-5.85-2.51,0-4.9,2-6.69,4.06L86.92,24.06c.9-2-4.54-6.08-5.42-4.16-.39.83-6,12.59-11.71,24.74-1.56,2-6.33,7.91-10.8,9.92a17.7,17.7,0,0,0,.83-4.94,5.71,5.71,0,0,0-6-5.69c-10.73,0-18.35,11.2-18.35,21.16,0,4.69,2.31,7.33,6.79,7.33,5.92,0,11.6-6.4,14.84-13,2.62-.72,5.89-3,7.93-4.64L56.78,72.13c-.16.34,7.19.51,7.38.1l2.06-4.36c.24,1.79,1.37,4.54,6.06,4.54,5.46,0,10.87-5.64,13.55-13,3-.87,6.72-3.73,8.67-5.33C91.77,59.5,89,65.47,89,67.72c0,3.12,1.95,4.69,4.75,4.69,6,0,11.56-6.45,15.09-11.77-2.68,5.73-5.08,10.85-5.37,11.48-.16.36,6.66.36,6.83,0s.88-1.8,1.89-3.89c3.71-6.45,11.16-18.47,15.14-18.47a1,1,0,0,1,1.14,1.14c0,2.12-8.35,13-8.35,17a4.49,4.49,0,0,0,4.78,4.54c4.09,0,8.17-2.82,11.74-6.48a7.59,7.59,0,0,0,7.47,6.46h.13l0,0c6.72,0,11.52-5.08,14-8.55,0,.41,0,.81,0,1.22,0,4.69,2.31,7.33,6.8,7.33,5.92,0,11.6-6.41,14.83-13,2.58-.74,5.61-3.11,7.46-4.71-3.57,7.64-7.76,16.58-8.14,17.42-.16.36,6.65.36,6.82,0s.75-1.53,1.61-3.31c3.58-6.27,11.39-19.05,15.51-19.05a1,1,0,0,1,1.13,1.14c0,2.12-8.35,13-8.35,17a4.5,4.5,0,0,0,4.78,4.54c7.71,0,11.74-9.25,11.74-9.25C212.58,62.75,211.14,61.22,211,61.74Zm-155.84-8C53.17,54.28,52,55.6,52,56.9A2.43,2.43,0,0,0,53,59c-2.31,4.28-5.69,8.18-8.76,8.18-1.36,0-1.95-.91-2-2.34-.09-5.34,6.67-16.5,11.63-16.5A1.9,1.9,0,0,1,55.7,50.4,12.27,12.27,0,0,1,55.11,53.78ZM71.08,68c-2,0-2.47-2.9-2.49-5.1l4-8.43c1.4-1.84,3.5-4,5.47-4,1.34,0,1.95.78,1.95,2.24C80,58.3,76.05,68,71.08,68Zm72.47-.82c-2.7,0-3.59-3-3.87-4.57a78.36,78.36,0,0,0,6.16-8.91c.24,3.78.55,8.13.55,9.41C146.39,65.54,145.47,67.13,143.55,67.13Zm34.36-13.35c-1.94.5-3.1,1.82-3.1,3.12a2.43,2.43,0,0,0,.93,2.05c-2.3,4.28-5.69,8.18-8.76,8.18-1.36,0-1.95-.91-2-2.34-.1-5.34,6.66-16.5,11.63-16.5a1.89,1.89,0,0,1,1.85,2.11A12.6,12.6,0,0,1,177.91,53.78Z"/><path class="cls-4" d="M236.49,38.48c-.5,1-4.33,8.11-4.33,9.61,0,.16,0,.35,0,.56-2.6,3.85-12.73,18.48-16.54,18.48-.72,0-5.13,5.29-4,5.29,4.06,0,8.11-2.77,11.66-6.39a7.57,7.57,0,0,0,7.45,6.37,8.49,8.49,0,0,0,8.7-8.61c0-2.95-.8-10.27-.8-13.65,0-2.64,1.8-5.71,2.77-7.6C242.28,40.86,237.37,36.62,236.49,38.48Zm-6.35,28.65c-2.64,0-3.55-2.86-3.85-4.46a76.2,76.2,0,0,0,6.15-8.86c.24,3.74.54,8,.54,9.25C233,65.54,232.06,67.13,230.14,67.13Z"/><path class="cls-4" d="M28.12,46.93c16.05-2.15,28.11-16.54,28.11-30C56.23,6.56,48.28,0,37.24,0,23.61,0,8.74,9,5,19.47c-.9,2.52.17,4.26,2.42,5.13,4-9.75,13.86-18.81,28.74-18.81,6.24,0,11.12,3.53,11.12,11,0,10.58-8.52,25.26-22,25.26-1.11,0-2.16,0-3.13-.13C28.05,29.47,33.51,18,34.2,16.5,35.35,13.92,28.12,8.62,27,11,26.59,12,20.18,25.5,13.79,39A13.94,13.94,0,0,1,10,33.83a3.64,3.64,0,0,0-2.14,5.23,12.81,12.81,0,0,0,3.85,4.27L.8,66.34c-3.3,7,4.67,10.61,5.45,9,1-2.11,7.23-15.19,13.55-28.51h0a1.21,1.21,0,0,0-.15.57c0,5.37,3.56,33.18,6.94,36.56,2.77,2.61,11.2,5.35,9.88,2.77C33.08,80.06,27.25,56.19,28.12,46.93Z"/></svg>